<svg width="52" height="78" viewBox="0 0 52 78" fill="none" xmlns="http://www.w3.org/2000/svg">
<g clip-path="url(#clip0_838_28192)">
<mask id="path-1-inside-1_838_28192" fill="white">
<path fill-rule="evenodd" clip-rule="evenodd" d="M50 -1.08235H2V0.917647L7.3887 65.582C7.67885 69.0638 7.82392 70.8047 8.97209 71.8612C10.1203 72.9176 11.8672 72.9176 15.3611 72.9176H36.6389C40.1328 72.9176 41.8797 72.9176 43.0279 71.8612C44.1761 70.8047 44.3212 69.0638 44.6113 65.582L50 0.917647V-1.08235Z"/>
</mask>
<path fill-rule="evenodd" clip-rule="evenodd" d="M50 -1.08235H2V0.917647L7.3887 65.582C7.67885 69.0638 7.82392 70.8047 8.97209 71.8612C10.1203 72.9176 11.8672 72.9176 15.3611 72.9176H36.6389C40.1328 72.9176 41.8797 72.9176 43.0279 71.8612C44.1761 70.8047 44.3212 69.0638 44.6113 65.582L50 0.917647V-1.08235Z" fill="#ECE8FF"/>
<path d="M2 -1.08235V-3.08235H0V-1.08235H2ZM50 -1.08235H52V-3.08235H50V-1.08235ZM2 0.917647H0V1.00084L0.00690854 1.08374L2 0.917647ZM7.3887 65.582L5.39561 65.7481L7.3887 65.582ZM8.97209 71.8612L7.61787 73.3329L7.61788 73.333L8.97209 71.8612ZM43.0279 71.8612L44.3821 73.333L44.3821 73.3329L43.0279 71.8612ZM44.6113 65.582L46.6044 65.7481L44.6113 65.582ZM50 0.917647L51.9931 1.08374L52 1.00084V0.917647H50ZM2 0.917647H50V-3.08235H2V0.917647ZM4 0.917647V-1.08235H0V0.917647H4ZM9.38179 65.4159L3.99309 0.751556L0.00690854 1.08374L5.39561 65.7481L9.38179 65.4159ZM10.3263 70.3894C10.174 70.2493 9.98402 69.9998 9.81375 69.2097C9.63139 68.3636 9.53135 67.2106 9.38179 65.4159L5.39561 65.7481C5.5362 67.4352 5.65377 68.8936 5.90353 70.0525C6.16537 71.2674 6.62203 72.4166 7.61787 73.3329L10.3263 70.3894ZM15.3611 70.9176C13.5601 70.9176 12.4028 70.9137 11.5445 70.8022C10.743 70.6982 10.4786 70.5296 10.3263 70.3894L7.61788 73.333C8.61372 74.2493 9.79692 74.6089 11.0294 74.7689C12.205 74.9216 13.6681 74.9176 15.3611 74.9176V70.9176ZM36.6389 70.9176H15.3611V74.9176H36.6389V70.9176ZM41.6737 70.3894C41.5214 70.5296 41.257 70.6982 40.4555 70.8022C39.5972 70.9137 38.4399 70.9176 36.6389 70.9176V74.9176C38.3319 74.9176 39.795 74.9216 40.9706 74.7689C42.2031 74.6089 43.3863 74.2493 44.3821 73.333L41.6737 70.3894ZM42.6182 65.4159C42.4687 67.2106 42.3686 68.3636 42.1863 69.2097C42.016 69.9998 41.826 70.2493 41.6737 70.3894L44.3821 73.3329C45.378 72.4166 45.8346 71.2674 46.0965 70.0525C46.3462 68.8936 46.4638 67.4352 46.6044 65.7481L42.6182 65.4159ZM48.0069 0.751557L42.6182 65.4159L46.6044 65.7481L51.9931 1.08374L48.0069 0.751557ZM48 -1.08235V0.917647H52V-1.08235H48Z" fill="#CECCF1" mask="url(#path-1-inside-1_838_28192)"/>
<path fill-rule="evenodd" clip-rule="evenodd" d="M2.83331 10.9176L7.38868 65.582C7.67883 69.0638 7.8239 70.8047 8.97207 71.8612C10.1202 72.9176 11.8672 72.9176 15.361 72.9176H36.6389C40.1328 72.9176 41.8797 72.9176 43.0279 71.8612C44.1761 70.8047 44.3211 69.0638 44.6113 65.582L49.1666 10.9176H2.83331Z" fill="#A8594A"/>
<path opacity="0.6" fill-rule="evenodd" clip-rule="evenodd" d="M14 72.9176H24L18.8333 10.9176H8.83331L14 72.9176Z" fill="#D37F53"/>
<path opacity="0.5" fill-rule="evenodd" clip-rule="evenodd" d="M18 0.917647H8L8.83333 10.9176H18.8333L18 0.917647Z" fill="white"/>
<path fill-rule="evenodd" clip-rule="evenodd" d="M49.1667 10.9176H41.1667L36 72.9176H36.6389C40.1328 72.9176 41.8797 72.9176 43.0279 71.8612C44.1587 70.8207 44.3165 69.1165 44.5982 65.7393C44.6025 65.6873 44.6069 65.6348 44.6113 65.582L49.1667 10.9176Z" fill="#843C3D"/>
<g opacity="0.06">
<path fill-rule="evenodd" clip-rule="evenodd" d="M42 0.917647H50L49.1667 10.9176H41.1667L42 0.917647Z" fill="black" style="mix-blend-mode:soft-light"/>
</g>
<g opacity="0.06">
<path fill-rule="evenodd" clip-rule="evenodd" d="M50 0.917647H2L2.16667 2.91765H49.8333L50 0.917647Z" fill="black" style="mix-blend-mode:soft-light"/>
</g>
<path fill-rule="evenodd" clip-rule="evenodd" d="M21.3539 31.5826L22.5102 37.0227C22.6128 37.5053 22.435 37.9939 22.065 38.2464L18.5138 40.6695L17.1867 34.426L11.5724 33.6617L15.7973 31.131C15.9785 31.0224 16.1873 30.9776 16.397 31.0021L21.3539 31.5826Z" fill="#ECE8FF" fill-opacity="0.6"/>
<path d="M11.5724 33.6617L17.1867 34.426L18.5138 40.6695L13.6687 40.0099C13.2104 39.9475 12.8274 39.5662 12.7212 39.0662L11.5724 33.6617Z" fill="#ECE8FF" fill-opacity="0.6"/>
<path d="M21.3539 31.5826L17.1867 34.426M21.3539 31.5826L22.5102 37.0227M21.3539 31.5826L16.397 31.0021M11.5724 33.6617L17.1867 34.426M11.5724 33.6617L15.7973 31.131M11.5724 33.6617L12.7212 39.0662M17.1867 34.426L18.5138 40.6695M18.5138 40.6695L13.6687 40.0099M18.5138 40.6695L22.065 38.2464M22.5102 37.0227C22.6128 37.5053 22.435 37.9939 22.065 38.2464M22.5102 37.0227L22.5259 37.0967C22.5409 37.1672 22.5484 37.2025 22.5532 37.2352C22.6043 37.5895 22.4621 37.9441 22.1804 38.165C22.1544 38.1854 22.1246 38.2057 22.065 38.2464V38.2464M16.397 31.0021C16.1873 30.9776 15.9785 31.0224 15.7973 31.131M16.397 31.0021V31.0021C16.1884 30.9777 15.9775 31.023 15.7973 31.131V31.131M12.7212 39.0662C12.8274 39.5662 13.2104 39.9475 13.6687 40.0099M12.7212 39.0662L12.7381 39.1458C12.7526 39.2141 12.7599 39.2482 12.7684 39.2788C12.8698 39.6407 13.1655 39.9153 13.5339 39.9895C13.565 39.9958 13.5996 40.0005 13.6687 40.0099V40.0099" stroke="#EFDFDC" stroke-width="1.4" stroke-linejoin="round"/>
<path fill-rule="evenodd" clip-rule="evenodd" d="M40.1489 45.3917L37.3681 50.2082C37.1214 50.6355 36.6624 50.8797 36.2185 50.8197L31.958 50.2442L35.1495 44.7164L31.4887 40.3917L36.3218 41.338C36.5291 41.3786 36.7142 41.485 36.8537 41.6436L40.1489 45.3917Z" fill="#ECE8FF" fill-opacity="0.6"/>
<path d="M31.4887 40.3917L35.1495 44.7164L31.958 50.2442L28.7988 46.5121C28.4999 46.159 28.4705 45.6194 28.7261 45.1768L31.4887 40.3917Z" fill="#ECE8FF" fill-opacity="0.6"/>
<path d="M40.1489 45.3917L35.1495 44.7164M40.1489 45.3917L37.3681 50.2082M40.1489 45.3917L36.8537 41.6436M31.4887 40.3917L35.1495 44.7164M31.4887 40.3917L36.3218 41.338M31.4887 40.3917L28.7261 45.1768M35.1495 44.7164L31.958 50.2442M31.958 50.2442L28.7988 46.5121M31.958 50.2442L36.2185 50.8197M37.3681 50.2082C37.1214 50.6355 36.6624 50.8797 36.2185 50.8197M37.3681 50.2082L37.3303 50.2738C37.2942 50.3362 37.2762 50.3674 37.2578 50.3949C37.0587 50.6924 36.7158 50.8608 36.3587 50.8365C36.3257 50.8342 36.2899 50.8294 36.2185 50.8197V50.8197M36.8537 41.6436C36.7142 41.485 36.5291 41.3786 36.3218 41.338M36.8537 41.6436V41.6436C36.715 41.4858 36.5279 41.3784 36.3218 41.338V41.338M28.7261 45.1768C28.4705 45.6194 28.4999 46.159 28.7988 46.5121M28.7261 45.1768L28.6854 45.2472C28.6505 45.3077 28.633 45.3379 28.6189 45.3664C28.452 45.7031 28.4881 46.105 28.7122 46.4067C28.7311 46.4322 28.7537 46.4588 28.7988 46.5121V46.5121" stroke="#EFDFDC" stroke-width="1.4" stroke-linejoin="round"/>
</g>
<defs>
<clipPath id="clip0_838_28192">
<rect width="52" height="77.0824" fill="white" transform="translate(0 0.917647)"/>
</clipPath>
</defs>
</svg>
