<svg width="132" height="208" viewBox="0 0 132 208" fill="none" xmlns="http://www.w3.org/2000/svg">
<g id="CoffeeShot logo">
<path id="Vector" d="M48.9109 0.125099C52.3446 -0.337875 55.8512 0.547621 59.0522 1.73877C60.5481 2.29614 76.0336 10.5937 77.0415 11.4118C83.9177 16.981 81.7974 23.3817 80.1468 30.9152C80.9127 33.1222 107.73 30.1241 118.25 54.2887C132.294 52.3153 137.525 70.4255 124.629 76.3723C119.869 111.648 117.274 147.208 112.199 182.443C109.563 192.948 97.6569 203.277 86.8497 204.526C84.8661 204.756 49.1479 204.756 46.9455 204.526C33.9771 203.164 22.1075 191.999 20.288 179.22C16.1446 145.26 12.001 111.3 7.85756 77.343C7.21918 75.5271 -0.309332 72.6234 0.00986492 65.0901C0.265223 59.0578 6.95924 52.9403 13.2566 54.6122C23.2246 29.2251 51.4143 32.4929 53.3204 30.9152C53.5392 30.7354 54.2187 26.1686 54.6292 25.4359C54.3008 24.2043 42.9739 21.9748 40.2379 16.7293C36.8042 10.1443 41.3823 1.14095 48.9063 0.125099H48.9109Z" fill="white"/>
<path id="Vector_2" d="M22.2531 61.3897C49.9003 60.9057 78.3225 60.9879 105.983 61.3897C107.182 61.4079 108.382 61.3623 109.581 61.3897C110.766 61.4171 112.002 61.3488 113.179 61.3897C114.953 61.4538 117.091 61.216 118.737 61.3897C125.897 67.3913 120.643 68.7981 119.718 70.2366C105.495 69.3277 17.9804 71.4242 12.7684 70.2366C10.9626 69.8256 9.64478 67.5191 9.82261 65.8155C10.0461 63.7147 12.7136 62.8239 12.7684 61.3943C14.6516 61.1705 17.0593 61.1203 18.9836 61.0655C19.1478 61.0609 19.4806 61.4399 22.2531 61.3943V61.3897Z" fill="#5B3020"/>
<path id="Vector_3" d="M119.718 70.2366C119.007 71.342 118.177 72.4107 117.757 73.6759V80.5544L116.448 81.0477C116.612 78.21 116.777 75.3706 116.941 72.5296H15.8783L15.7142 80.7189C15.6184 80.7099 15.2445 80.9929 13.7534 80.7189C13.6303 80.3445 13.7215 75.3614 13.4251 72.8584C13.4068 72.7122 14.296 72.8677 12.773 70.2366C17.9896 71.4242 105.504 69.328 119.722 70.2366H119.718Z" fill="#42261D"/>
<path id="Vector_4" d="M12.7687 61.3897C12.7185 62.8193 10.0464 63.7101 9.82295 65.8109C9.64511 67.5145 10.9629 69.821 12.7687 70.2324C14.2917 72.8631 13.4071 72.7079 13.4208 72.8538C12.6775 71.8491 10.7532 72.041 9.33049 70.89C6.65835 68.7249 5.77371 62.2211 12.7641 61.3897H12.7687Z" fill="#352626"/>
<path id="Vector_5" d="M116.448 81.0477C89.6587 79.8786 39.0657 82.7424 15.7096 80.7189L15.8738 72.5296H116.936C116.772 75.3676 116.608 78.207 116.444 81.0477H116.448Z" fill="#5B3020"/>
<path id="Vector_6" d="M113.179 61.3897C112.002 61.3484 110.766 61.4171 109.581 61.3897C107.096 53.6571 104.848 51.168 98.1354 47.3038C85.7914 40.2014 68.8103 40.2288 54.7975 41.0783C40.8758 41.9236 25.7641 45.76 22.253 61.3897C19.4805 61.4399 19.1476 61.0563 18.9835 61.0609C25.7231 33.6382 57.9483 40.0004 59.5399 37.6391C60.3029 32.615 61.0658 27.5924 61.8288 22.5713C61.5734 21.5528 49.3393 17.0402 47.9302 15.8572C43.9174 12.4865 46.6534 5.90485 52.8366 6.68588C54.1134 6.84574 70.8576 15.1127 72.1344 16.1861C78.1308 21.2376 71.7285 31.56 73.1148 38.137C91.6783 38.927 106.676 42.1015 113.179 61.399V61.3897Z" fill="#2F2B2F"/>
<path id="Vector_7" d="M50.5438 9.95613C52.9561 9.15226 68.2549 17.8441 71.3143 19.9496C72.3769 21.9501 69.5544 34.8347 69.1894 38.1323L62.8102 37.9679C63.5732 32.2892 64.3361 26.6104 65.0991 20.9316C64.4061 18.2642 43.2023 12.4043 50.5438 9.95613Z" fill="#BCE2E6"/>
<path id="Vector_8" d="M98.1308 47.3038C101.505 51.547 105.477 55.6529 105.979 61.3897C78.3176 60.9879 49.9 60.9057 22.2484 61.3897C25.7596 45.76 40.8669 41.9236 54.7929 41.0783C68.8057 40.2288 85.7868 40.2014 98.1308 47.3038Z" fill="#C4A580"/>
<path id="Vector_9" d="M109.581 61.3897C108.382 61.3623 107.182 61.4079 105.983 61.3897C105.482 55.6532 101.505 51.547 98.1354 47.3038C104.852 51.168 107.096 53.6571 109.581 61.3897Z" fill="#786656"/>
<path id="Vector_10" d="M13.7496 80.7189C15.2452 80.9929 15.6146 80.7099 15.7104 80.7189C39.0621 82.7424 89.6547 79.8786 116.449 81.0477L117.758 80.5544V73.6759C118.182 72.4061 119.012 71.3374 119.719 70.2367C120.644 68.7981 125.897 67.396 118.738 61.3897C127.648 62.3307 126.481 71.0498 118.738 72.3652C118.519 75.3125 118.302 78.2618 118.086 81.2121C117.931 81.8107 116.832 81.121 116.449 83.1762L105.656 182.44C103.517 191.145 96.1435 199.042 87.1741 200.623C84.6298 201.07 50.2293 201.298 47.2699 200.951C36.8732 199.723 28.3688 190.46 27.1559 180.147C23.3438 147.376 19.4495 114.6 15.3821 81.8655C15.268 81.605 14.0232 81.5548 13.745 80.7189H13.7496Z" fill="#2F2B2F"/>
<path id="Vector_11" d="M113.831 82.0299C112.787 85.3639 110.201 83.4958 106.964 84.3225C107.105 83.4869 107.055 82.546 107.292 81.7011C108.327 81.7285 113.489 81.4271 113.835 82.0299H113.831Z" fill="#A3712C"/>
<path id="Vector_12" d="M30.7574 182.928C33.6577 182.092 36.6901 182.805 39.5901 182.928C40.0234 182.947 40.4656 182.91 40.8989 182.928C46.5759 183.152 87.0959 183.449 89.467 182.928C90.0689 182.796 91.87 181.385 92.2485 180.8C94.6697 177.027 100.315 123.054 101.733 113.641C103.206 103.862 105.299 94.0787 106.968 84.3225C110.206 83.4958 112.791 85.3642 113.835 82.0299C110.239 114.845 106.641 147.661 103.042 180.476C101.25 189.446 93.0102 197.266 83.9084 198.33C82.1482 198.535 50.6481 198.535 48.9106 198.33C40.7893 197.371 33.1468 190.761 30.7574 182.933V182.928Z" fill="#BA8432"/>
<path id="Vector_13" d="M104.839 140.342C106.8 140.387 104.087 142.863 104.675 144.11C104.766 144.306 108.323 146.015 105.167 146.896C100.949 148.075 102.149 140.278 104.839 140.342Z" fill="#352626"/>
<path id="Vector_14" d="M40.8943 182.928C40.4613 182.91 40.0188 182.947 39.5858 182.928C34.9117 180.334 39.5766 173.008 43.9999 173.757C49.2393 174.638 43.3795 181.983 40.8943 182.928Z" fill="#FAD293"/>
<path id="Vector_15" d="M39.2617 180.311C40.8804 178.845 43.3201 177.018 43.5115 174.744C48.7829 175.114 41.1814 183.956 39.2617 180.311Z" fill="#42261D"/>
<path id="Vector_16" d="M43.5121 174.739C43.3207 177.018 40.8768 178.84 39.2624 180.307C37.9536 177.831 40.9177 174.556 43.5121 174.739Z" fill="#995526"/>
<path id="Vector_17" d="M107.292 81.7011C107.055 82.5413 107.109 83.4869 106.964 84.3225C105.295 94.083 103.206 103.867 101.729 113.641C100.31 123.054 94.6654 177.027 92.2439 180.8C91.87 181.385 90.0643 182.796 89.4623 182.928C87.0913 183.449 46.567 183.152 40.8943 182.928C43.3841 181.983 49.239 174.638 43.9996 173.757C39.5762 173.012 34.9071 180.334 39.5855 182.928C36.6854 182.805 33.6577 182.092 30.7529 182.928C26.6443 149.248 21.829 115.641 18.6507 81.8655C48.1582 82.1712 77.7935 80.8925 107.287 81.7011H107.292Z" fill="#E1A146"/>
<path id="Vector_18" d="M51.1998 112.823C56.6217 111.91 56.3617 121.46 52.837 122.323C47.0458 123.739 46.8541 113.554 51.1998 112.823Z" fill="#FAD293"/>
<path id="Vector_19" d="M53.325 120.684C50.3243 122.031 51.7199 117.87 52.0162 113.805C55.1169 113.622 55.6961 118.711 53.325 120.684Z" fill="#5B3020"/>
<path id="Vector_20" d="M52.0162 113.805C51.7199 117.875 50.3247 122.031 53.325 120.684C49.0433 124.251 47.7071 114.056 52.0162 113.805Z" fill="#6A3A20"/>
<path id="Vector_21" d="M28.9571 95.1336C36.1073 93.4759 33.9002 106.963 27.6484 103.981C24.4883 102.473 26.212 95.7731 28.9571 95.1336Z" fill="#FAD293"/>
<path id="Vector_22" d="M27.1595 99.0618C28.7145 104.999 30.8394 99.3586 29.1203 96.44C33.0191 94.3435 33.5798 100.103 31.7377 102.172C29.7861 104.364 26.5622 103.355 27.1595 99.0618Z" fill="#42261D"/>
<path id="Vector_23" d="M29.1205 96.4446C30.8397 99.3632 28.7147 104.999 27.1597 99.0661C27.365 97.5774 27.9349 97.0842 29.1205 96.4446Z" fill="#A76232"/>
<path id="Vector_24" d="M73.4392 139.031C80.0286 137.679 79.7867 150.856 73.1112 147.878C70.1286 146.544 70.3157 139.675 73.4392 139.031Z" fill="#FAD293"/>
<path id="Vector_25" d="M75.8924 140.342C74.018 142.288 77.7071 147.367 72.6228 145.585C71.2137 142.9 72.1119 138.693 75.8924 140.342Z" fill="#6A3A20"/>
<path id="Vector_26" d="M72.6231 145.585C77.7074 147.371 74.023 142.288 75.8924 140.342C80.3431 142.283 75.6142 151.276 72.6231 145.585Z" fill="#5B3020"/>
<path id="Vector_27" d="M85.2126 132.153C92.9419 131.011 90.1784 140.506 83.5758 139.031C79.864 138.204 81.1315 132.755 85.2126 132.153Z" fill="#FAD293"/>
<path id="Vector_28" d="M85.3769 133.135C90.352 132.408 90.2652 136.282 87.1738 137.72C81.9618 140.15 80.8444 134.194 85.0489 133.135C81.0817 136.944 88.902 135.898 85.3769 133.135Z" fill="#42261D"/>
<path id="Vector_29" d="M85.0483 133.135C85.1486 133.107 85.272 133.148 85.3766 133.135C88.9017 135.898 81.0813 136.944 85.0483 133.135Z" fill="#DB7644"/>
<path id="Vector_30" d="M83.5801 93.8229C88.8832 92.1374 91.0675 103.159 84.8889 101.03C81.8793 99.9935 81.2866 94.5538 83.5801 93.8229Z" fill="#FAD293"/>
<path id="Vector_31" d="M83.9041 94.8047C87.7206 93.1331 89.5765 101.916 85.2126 100.048C83.2837 99.2216 82.4356 95.4489 83.9041 94.8047Z" fill="#42261D"/>
<path id="Vector_32" d="M77.6889 109.873C83.6032 108.005 83.7309 120.647 78.0173 118.062C75.1628 116.77 75.4182 110.59 77.6889 109.873Z" fill="#FAD293"/>
<path id="Vector_33" d="M78.674 110.531C81.8796 110.133 82.3951 116.728 80.3111 117.409C76.5217 118.647 75.7238 110.896 78.674 110.531Z" fill="#5B3020"/>
<path id="Vector_34" d="M98.2955 100.048C103.818 99.4544 103.9 107.246 97.9674 105.945C94.7615 105.241 94.7252 100.432 98.2955 100.048Z" fill="#FAD293"/>
<path id="Vector_35" d="M97.9674 101.03C101.442 100.094 103.353 103.688 100.585 104.963C97.2104 106.511 94.8529 101.875 97.9674 101.03Z" fill="#42261D"/>
<path id="Vector_36" d="M35.8284 132.481C43.398 131.225 37.557 143.941 32.5591 142.31C28.9339 141.127 32.1487 133.093 35.8284 132.481Z" fill="#FAD293"/>
<path id="Vector_37" d="M35.8284 133.463C42.1304 132.057 36.8956 142.173 33.5392 141.324C30.8809 140.653 32.9511 134.103 35.8284 133.463Z" fill="#42261D"/>
<path id="Vector_38" d="M35.8284 134.116C37.0369 134.39 34.9255 137.939 34.684 138.213C30.7624 142.653 33.7903 133.655 35.8284 134.116Z" fill="#995526"/>
<path id="Vector_39" d="M82.9234 173.428C89.3439 172.273 90.7163 183.755 83.9038 181.289C80.9081 180.206 79.166 174.1 82.9234 173.428Z" fill="#FAD293"/>
<path id="Vector_40" d="M82.9241 174.41C86.4626 173.246 89.2851 178.708 86.8501 180.307C83.8497 182.275 79.5452 175.52 82.9241 174.41Z" fill="#5B3020"/>
<path id="Vector_41" d="M84.5612 175.068C85.7469 174.853 86.7956 177.123 85.5416 177.689C84.0962 178.338 82.8696 175.378 84.5612 175.068Z" fill="#995526"/>
<path id="Vector_42" d="M78.6736 157.703C86.0333 155.857 87.3969 165.221 80.3108 164.91C75.6548 164.704 74.743 158.689 78.6736 157.703Z" fill="#FAD293"/>
<path id="Vector_43" d="M79.3257 158.36C84.3599 157.41 86.4349 163.439 81.2866 163.928C76.4666 164.385 75.7007 159.041 79.3257 158.36Z" fill="#42261D"/>
<path id="Vector_44" d="M79.9828 158.689C82.6046 158.306 82.5729 162.032 79.3307 160.982C78.0401 160.566 78.9386 158.844 79.9828 158.689Z" fill="#CD7A3C"/>
<path id="Vector_45" d="M48.9113 148.202C54.5655 147.188 56.0063 152.802 52.1806 154.757C45.4456 158.196 43.0699 149.253 48.9113 148.202Z" fill="#FAD293"/>
<path id="Vector_46" d="M49.563 148.86C53.3887 148.362 54.8935 152.094 52.1803 153.775C46.6537 157.196 44.1184 149.568 49.563 148.86Z" fill="#5B3020"/>
<path id="Vector_47" d="M49.5634 149.842C52.3314 149.23 51.319 152.039 49.8917 152.135C48.4371 152.231 47.6982 150.253 49.5634 149.842Z" fill="#CD7A3C"/>
<path id="Vector_48" d="M69.1894 102.666C76.1752 101.409 73.225 110.951 67.5523 109.544C64.1599 108.703 66.0703 103.227 69.1894 102.666Z" fill="#FAD293"/>
<path id="Vector_49" d="M70.1692 103.323C75.0849 103.04 71.7743 109.918 67.8803 108.566C65.4545 107.726 67.6021 103.474 70.1692 103.323Z" fill="#42261D"/>
<path id="Vector_50" d="M68.8604 104.305C70.1234 104.136 69.4122 106.269 68.2084 105.945C67.187 105.671 68.7053 104.328 68.8604 104.305Z" fill="#CC5C45"/>
</g>
</svg>
